<svg width="25" height="25" viewBox="0 0 25 25" fill="none" xmlns="http://www.w3.org/2000/svg">
<g id="Group">
<path id="Vector" d="M12.3596 24.9693C10.4896 24.9693 8.60959 25.0393 6.74959 24.9493C2.92959 24.7693 0.209592 22.1793 0.0895918 18.3793C-0.0404082 14.3493 -0.0404082 10.2993 0.189592 6.27931C0.379592 3.02931 2.49959 0.819306 5.74959 0.409306C10.1196 -0.140694 14.5496 -0.130694 18.9096 0.389306C22.5696 0.829306 24.6996 3.40931 24.7896 7.09931C24.8796 10.7693 24.8896 14.4493 24.7796 18.1293C24.6696 22.0593 22.0496 24.6993 18.1096 24.9193C16.1996 25.0293 14.2796 24.9393 12.3596 24.9393C12.3596 24.9493 12.3596 24.9593 12.3596 24.9693ZM12.6096 2.39931C12.6096 2.40931 12.6096 2.42931 12.6096 2.43931C10.6296 2.43931 8.63959 2.36931 6.65959 2.46931C5.83959 2.50931 4.95959 2.80931 4.24959 3.22931C2.73959 4.11931 2.26959 5.65931 2.23959 7.28931C2.18959 10.8293 2.16959 14.3693 2.25959 17.9093C2.33959 20.8293 3.93959 22.5693 6.73959 22.6693C10.4096 22.8093 14.0896 22.8193 17.7596 22.6993C20.8296 22.5893 22.3596 21.1693 22.5196 18.0993C22.7096 14.4793 22.7396 10.8393 22.5496 7.21931C22.3796 3.89931 20.8596 2.58931 17.5396 2.41931C15.9096 2.32931 14.2596 2.39931 12.6096 2.39931Z" fill="#58B4AE"/>
<path id="Vector_2" d="M12.46 6.20898C15.92 6.20898 18.82 9.06898 18.84 12.509C18.86 16.059 15.97 18.969 12.4 18.979C8.91003 18.979 6.01003 16.109 6.00003 12.629C5.99003 9.06898 8.87003 6.20898 12.46 6.20898ZM16.58 12.609C16.6 10.279 14.79 8.42898 12.47 8.40898C10.12 8.38898 8.23003 10.219 8.23003 12.569C8.23003 14.839 10.08 16.749 12.39 16.739C14.72 16.729 16.56 14.939 16.58 12.609Z" fill="#58B4AE"/>
<path id="Vector_3" d="M20.5695 5.89921C20.5895 6.65921 19.8995 7.37921 19.1295 7.41921C18.3395 7.45921 17.6095 6.74921 17.6095 5.91921C17.5995 5.15921 18.2395 4.49921 18.9995 4.46921C19.8595 4.44921 20.5495 5.07921 20.5695 5.89921Z" fill="#58B4AE"/>
</g>
</svg>
